<svg xmlns="http://www.w3.org/2000/svg" viewBox="0 0 156.03 197.41"><defs><style>.cls-1{fill:#004448;}.cls-1,.cls-2{stroke:#231f20;}.cls-1,.cls-3,.cls-4,.cls-6{stroke-linecap:round;stroke-linejoin:round;}.cls-1,.cls-2,.cls-3,.cls-4,.cls-6{stroke-width:4px;}.cls-2,.cls-3,.cls-6{fill:none;}.cls-2,.cls-5{stroke-miterlimit:10;}.cls-3,.cls-4,.cls-5{stroke:#fff;}.cls-4,.cls-5{fill:#fff;}.cls-6{stroke:#f2f2f2;}</style></defs><title>Asset 13</title><g id="Layer_2" data-name="Layer 2"><g id="Layer_1-2" data-name="Layer 1"><rect class="cls-1" x="2" y="30.29" width="152.03" height="152.03" rx="25.27"/><line class="cls-2" x1="78.02" y1="30.29" x2="78.02" y2="182.32"/><line class="cls-2" x1="2" y1="106.31" x2="154.03" y2="106.31"/><path class="cls-1" d="M59.14,182.63l19.28,12.78,18.47-12.78Z"/><path class="cls-1" d="M39.3,30.29c.79-4.21,2.56-9.7,7.09-12.13C48,17.33,49,17.42,50.63,17c3.59-1,10-3.7,23.43-13.77a6,6,0,0,1,7.34.14c13.78,11.16,20,13.71,23.4,14.53a14.37,14.37,0,0,1,3.72.88c4.26,2,6,7.24,6.89,11.55Z"/><line class="cls-3" x1="39.3" y1="44.6" x2="39.3" y2="91.99"/><line class="cls-3" x1="15.61" y1="68.3" x2="63" y2="68.3"/><line class="cls-3" x1="133.93" y1="68.3" x2="96.89" y2="68.3"/><line class="cls-4" x1="94.63" y1="144.47" x2="136.19" y2="144.47"/><circle class="cls-5" cx="115.41" cy="132.05" r="2.99"/><circle class="cls-5" cx="115.41" cy="156.88" r="2.99"/><line class="cls-6" x1="21.92" y1="126.89" x2="56.68" y2="161.65"/><line class="cls-6" x1="21.92" y1="161.65" x2="56.68" y2="126.89"/></g></g></svg>