<svg xmlns="http://www.w3.org/2000/svg" viewBox="0 0 226.97 226.97"><defs><style>.cls-1{fill:#ac2c15;stroke-width:4px;}.cls-1,.cls-2,.cls-3{stroke:#231f20;}.cls-1,.cls-3,.cls-6{stroke-miterlimit:10;}.cls-2{fill:#004448;}.cls-2,.cls-4,.cls-5,.cls-7{stroke-linecap:round;stroke-linejoin:round;}.cls-2,.cls-3,.cls-4,.cls-5,.cls-7{stroke-width:4.36px;}.cls-3,.cls-4,.cls-7{fill:none;}.cls-4,.cls-5,.cls-6{stroke:#fff;}.cls-5,.cls-6{fill:#fff;}.cls-6{stroke-width:1.09px;}.cls-7{stroke:#f2f2f2;}</style></defs><title>Asset 14</title><g id="Layer_2" data-name="Layer 2"><g id="Layer_1-2" data-name="Layer 1"><rect class="cls-1" x="2" y="2" width="222.97" height="222.97" rx="25.27"/><rect class="cls-2" x="31.33" y="40.87" width="165.63" height="165.63" rx="27.53"/><line class="cls-3" x1="114.15" y1="40.87" x2="114.15" y2="206.5"/><line class="cls-3" x1="31.33" y1="123.68" x2="196.96" y2="123.68"/><path class="cls-2" d="M93.58,206.83l21,13.92,20.12-13.92Z"/><path class="cls-2" d="M72,40.87c.86-4.58,2.79-10.56,7.73-13.21,1.69-.91,2.8-.81,4.61-1.31,3.91-1.1,10.92-4,25.53-15a6.53,6.53,0,0,1,8,.15c15,12.16,21.79,14.94,25.48,15.83,1.42.34,2.51.21,4.06,1,4.64,2.23,6.59,7.9,7.5,12.59Z"/><line class="cls-4" x1="71.97" y1="56.47" x2="71.97" y2="108.09"/><line class="cls-4" x1="46.16" y1="82.28" x2="97.78" y2="82.28"/><line class="cls-4" x1="175.06" y1="82.28" x2="134.71" y2="82.28"/><line class="cls-5" x1="132.25" y1="165.26" x2="177.52" y2="165.26"/><circle class="cls-6" cx="154.88" cy="151.73" r="3.26"/><circle class="cls-6" cx="154.88" cy="178.78" r="3.26"/><line class="cls-7" x1="53.04" y1="146.1" x2="90.91" y2="183.97"/><line class="cls-7" x1="53.04" y1="183.97" x2="90.91" y2="146.1"/></g></g></svg>